<?xml version='1.0' encoding='utf-8'?>
<!-- 从完整acoustic-guitar.svg提取的琴头部分 -->
<svg xmlns:xlink="http://www.w3.org/1999/xlink" xmlns="http://www.w3.org/2000/svg" viewBox="145 82 22 25">
  <defs>
    <linearGradient id="h">
      <stop stop-color="#cdcdcd" offset="0"/>
      <stop stop-color="#adadad" offset=".58007"/>
      <stop stop-color="#e7e7e7" offset="1"/>
    </linearGradient>
    <linearGradient id="g">
      <stop stop-color="#949494" offset="0"/>
      <stop stop-color="#d9d9d9" offset=".39231"/>
      <stop stop-color="#c4c4c4" offset=".75361"/>
      <stop stop-color="#a5a5a5" offset="1"/>
    </linearGradient>
    <radialGradient id="e" cx="150.92" cy="90.943" r=".97227" gradientUnits="userSpaceOnUse">
      <stop stop-color="#9d9d9d" offset="0"/>
      <stop stop-color="#d4d4d4" offset=".86364"/>
      <stop stop-color="#d4d4d4" offset=".92614"/>
      <stop stop-color="#8e8e8e" offset="1"/>
    </radialGradient>
    <linearGradient id="o" x1="149.98" x2="150.99" y1="89.469" y2="89.469" gradientUnits="userSpaceOnUse" xlink:href="#h"/>
    <linearGradient id="n" x1="149.22" x2="151.74" y1="87.932" y2="87.932" gradientUnits="userSpaceOnUse" xlink:href="#g"/>
    <linearGradient id="m" x1="155.36" x2="156.37" y1="89.06" y2="89.06" gradientUnits="userSpaceOnUse" xlink:href="#h"/>
    <linearGradient id="l" x1="154.6" x2="157.12" y1="87.523" y2="87.523" gradientUnits="userSpaceOnUse" xlink:href="#g"/>
    <linearGradient id="k" x1="160.61" x2="161.63" y1="88.928" y2="88.928" gradientTransform="translate(0 -.13281)" gradientUnits="userSpaceOnUse" xlink:href="#h"/>
    <linearGradient id="j" x1="159.86" x2="162.38" y1="87.391" y2="87.391" gradientTransform="translate(0 -.13281)" gradientUnits="userSpaceOnUse" xlink:href="#g"/>
  </defs>
  <g transform="translate(-4.5946 -5.5458)">
    <!-- 左侧旋钮 -->
    <path d="m149.98 88.959v1.0195h1.0138v-1.0195h-1.0138z" fill="url(#o)"/>
    <path d="m150.5 86.854c-0.58793 0-1.0102 0.26121-1.2744 0.5625v1.0938l0.75306 0.5h1.0138l0.75306-0.5v-1.0938c-0.26417-0.30129-0.65752-0.5625-1.2454-0.5625z" fill="url(#n)"/>
    <path d="m155.36 88.551v1.0195h1.0138v-1.0195h-1.0138z" fill="url(#m)"/>
    <path d="m155.88 86.445c-0.58793 0-1.0102 0.26121-1.2744 0.5625v1.0938l0.75306 0.5h1.0138l0.75306-0.5v-1.0938c-0.26417-0.30129-0.65752-0.5625-1.2454-0.5625z" fill="url(#l)"/>
    <path d="m160.61 88.285v1.0195h1.0138v-1.0195h-1.0138z" fill="url(#k)"/>
    <path d="m161.14 86.18c-0.58793 0-1.0102 0.26121-1.2744 0.5625v1.0938l0.75306 0.5h1.0138l0.75306-0.5v-1.0938c-0.26417-0.30129-0.65752-0.5625-1.2454-0.5625z" fill="url(#j)"/>
    
    <!-- 右侧旋钮(镜像) -->
    <g transform="matrix(1 0 0 -1 0 188.24)">
      <path d="m149.98 88.959v1.0195h1.0138v-1.0195h-1.0138z" fill="url(#o)"/>
      <path d="m150.5 86.854c-0.58793 0-1.0102 0.26121-1.2744 0.5625v1.0938l0.75306 0.5h1.0138l0.75306-0.5v-1.0938c-0.26417-0.30129-0.65752-0.5625-1.2454-0.5625z" fill="url(#n)"/>
      <path d="m155.36 88.551v1.0195h1.0138v-1.0195h-1.0138z" fill="url(#m)"/>
      <path d="m155.88 86.445c-0.58793 0-1.0102 0.26121-1.2744 0.5625v1.0938l0.75306 0.5h1.0138l0.75306-0.5v-1.0938c-0.26417-0.30129-0.65752-0.5625-1.2454-0.5625z" fill="url(#l)"/>
      <path d="m160.61 88.285v1.0195h1.0138v-1.0195h-1.0138z" fill="url(#k)"/>
      <path d="m161.14 86.18c-0.58793 0-1.0102 0.26121-1.2744 0.5625v1.0938l0.75306 0.5h1.0138l0.75306-0.5v-1.0938c-0.26417-0.30129-0.65752-0.5625-1.2454-0.5625z" fill="url(#j)"/>
    </g>
    
    <!-- 旋钮中心点 -->
    <path transform="translate(0 .45849)" d="m151.9 90.943c0 0.53697-0.4353 0.97227-0.97227 0.97227s-0.97227-0.4353-0.97227-0.97227 0.4353-0.97227 0.97227-0.97227 0.97227 0.4353 0.97227 0.97227z" fill="url(#e)"/>
    <path transform="translate(5.1707 .65849)" d="m151.9 90.943c0 0.53697-0.4353 0.97227-0.97227 0.97227s-0.97227-0.4353-0.97227-0.97227 0.4353-0.97227 0.97227-0.97227 0.97227 0.4353 0.97227 0.97227z" fill="url(#e)"/>
    <path transform="translate(10.474 .45849)" d="m151.9 90.943c0 0.53697-0.4353 0.97227-0.97227 0.97227s-0.97227-0.4353-0.97227-0.97227 0.4353-0.97227 0.97227-0.97227 0.97227 0.4353 0.97227 0.97227z" fill="url(#e)"/>
    <path transform="matrix(1 0 0 -1 0 187.79)" d="m151.9 90.943c0 0.53697-0.4353 0.97227-0.97227 0.97227s-0.97227-0.4353-0.97227-0.97227 0.4353-0.97227 0.97227-0.97227 0.97227 0.4353 0.97227 0.97227z" fill="url(#e)"/>
    <path transform="matrix(1 0 0 -1 5.1707 187.59)" d="m151.9 90.943c0 0.53697-0.4353 0.97227-0.97227 0.97227s-0.97227-0.4353-0.97227-0.97227 0.4353-0.97227 0.97227-0.97227 0.97227 0.4353 0.97227 0.97227z" fill="url(#e)"/>
    <path transform="matrix(1 0 0 -1 10.474 187.79)" d="m151.9 90.943c0 0.53697-0.4353 0.97227-0.97227 0.97227s-0.97227-0.4353-0.97227-0.97227 0.4353-0.97227 0.97227-0.97227 0.97227 0.4353 0.97227 0.97227z" fill="url(#e)"/>
  </g>
</svg>